<svg version="1.1" xmlns="http://www.w3.org/2000/svg" xmlns:xlink="http://www.w3.org/1999/xlink" width="445.125" height="233.5518" viewBox="0,0,445.125,233.5518"><g transform="translate(-92.25,-61.43214)"><g stroke-miterlimit="10"><path d="M154.39369,257.57004c-5.49314,0.57203 -10.40994,-3.41731 -10.98198,-8.91046l-10.3576,-99.46215c-0.57203,-5.49314 3.41731,-10.40994 8.91046,-10.98198l343.64174,-35.7855c5.49314,-0.57203 10.40994,3.41731 10.98198,8.91046l10.3576,99.46215c0.57203,5.49314 -3.41731,10.40994 -8.91046,10.98198z" fill="#ffffff" stroke="#000000" stroke-width="2.5"/><text transform="translate(156.17464,237.1093) rotate(-5.703) scale(3.51437,3.51437)" font-size="40" xml:space="preserve" fill="#ffef42" stroke="#000000" stroke-width="1" font-family="Technological" font-weight="normal" text-anchor="start"><tspan x="0" dy="0">PLAY</tspan></text><g><path d="M448.875,253.125c-0.55228,0 -1,-0.44771 -1,-1v-86.25c0,-0.55229 0.44772,-1 1,-1h86.25c0.55228,0 1,0.44771 1,1v86.25c0,0.55229 -0.44772,1 -1,1z" fill="#ffef42" stroke="#000000" stroke-width="2.5"/><path d="M459.03452,215.8c-1.38071,0 -2.5,-1.11929 -2.5,-2.5v-35c0,-1.38071 1.11929,-2.5 2.5,-2.5h11c1.38071,0 2.5,1.11929 2.5,2.5v35c0,1.38071 -1.11929,2.5 -2.5,2.5z" fill="#000000" stroke="#000000" stroke-width="2.5"/><path d="M465.06577,195.8c-0.73523,0 -1.33125,-0.55964 -1.33125,-1.25v-17.5c0,-0.69036 0.59602,-1.25 1.33125,-1.25h5.8575c0.73523,0 1.33125,0.55964 1.33125,1.25v17.5c0,0.69036 -0.59602,1.25 -1.33125,1.25z" fill="#ffffff" stroke="#000000" stroke-width="2.5"/><path d="M514.23453,215.8c-1.38071,0 -2.5,-1.11929 -2.5,-2.5v-35c0,-1.38071 1.11929,-2.5 2.5,-2.5h11c1.38071,0 2.5,1.11929 2.5,2.5v35c0,1.38071 -1.11929,2.5 -2.5,2.5z" fill="#000000" stroke="#000000" stroke-width="2.5"/><path d="M520.26578,195.8c-0.73523,0 -1.33125,-0.55964 -1.33125,-1.25v-17.5c0,-0.69036 0.59602,-1.25 1.33125,-1.25h5.8575c0.73523,0 1.33125,0.55964 1.33125,1.25v17.5c0,0.69036 -0.59602,1.25 -1.33125,1.25z" fill="#ffffff" stroke="#000000" stroke-width="2.5"/><path d="M531.93452,195.3c-2.5,0 -2.5,-2.5 -2.5,-2.5v-1.2c0,-5.28709 0.58506,-10.52169 0.6,-15.8c0.00219,-0.77239 -0.0295,-1.54606 0.01606,-2.31711c0.02097,-0.35492 0.45095,-0.81722 0.18292,-1.05081c-0.28154,-0.24536 -0.71717,0.23308 -1.0896,0.26065c-1.77396,0.1313 -3.4344,-0.0648 -5.20111,-0.20009c-5.63469,-0.43148 -11.03602,-0.82415 -16.65471,-0.01776c0,0 -2.47487,0.35355 -2.82843,-2.12132c-0.35355,-2.47487 2.12132,-2.82843 2.12132,-2.82843c6.8751,-0.9779 13.37969,-0.08745 20.24949,0.17672c1.87582,0.07213 5.34405,-0.31956 6.80509,1.06608c1.65771,1.57217 1.39395,4.99099 1.39897,7.03208c0.01298,5.27834 -0.6,10.51423 -0.6,15.8v1.2c0,0 0,2.5 -2.5,2.5z" fill="#ffffff" stroke="none" stroke-width="0.5"/><path d="M530.03452,249c0,-1.38071 1.11929,-2.5 2.5,-2.5c1.38071,0 2.5,1.11929 2.5,2.5c0,1.38071 -1.11929,2.5 -2.5,2.5c-1.38071,0 -2.5,-1.11929 -2.5,-2.5z" fill="#ffffff" stroke="none" stroke-width="0.5"/><path d="M532.53452,228.9c2.5,0 2.5,2.5 2.5,2.5c0,3.53333 0,7.46667 0,11c0,0 0,2.5 -2.5,2.5c-2.5,0 -2.5,-2.5 -2.5,-2.5c0,-3.53333 0,-7.06667 0,-10.6v-0.4c0,0 0,-2.5 2.5,-2.5z" fill="#ffffff" stroke="none" stroke-width="0.5"/><path d="M511.10917,249.60634c-0.60634,-2.42536 1.81902,-3.0317 1.81902,-3.0317l1.40634,-0.27464c3.73724,0.01129 7.02494,-0.34612 10.78014,0.22907c0,0 2.47093,0.38014 2.09079,2.85107c-0.38014,2.47093 -2.85107,2.09079 -2.85107,2.09079c-3.50548,-0.54185 -6.50889,-0.18009 -10.01986,-0.17093l-0.19366,0.12536c0,0 -2.42536,0.60634 -3.0317,-1.81902z" fill="#ffffff" stroke="none" stroke-width="0.5"/></g><path d="M208.5,253.5c0,18.77768 -25.74363,34 -57.5,34c-31.75637,0 -57.5,-15.22232 -57.5,-34c0,-18.77768 25.74363,-34 57.5,-34c31.75637,0 57.5,15.22232 57.5,34z" fill="#ffffff" stroke="#000000" stroke-width="2.5"/><path d="M232.51471,264c0,15.18783 -20.82205,27.5 -46.50735,27.5c-25.6853,0 -46.50735,-12.31217 -46.50735,-27.5c0,-15.18783 20.82205,-27.5 46.50735,-27.5c25.6853,0 46.50735,12.31217 46.50735,27.5z" fill="#ffffff" stroke="#000000" stroke-width="2.5"/></g></g></svg>