<svg version="1.1" xmlns="http://www.w3.org/2000/svg" xmlns:xlink="http://www.w3.org/1999/xlink" width="47.36753" height="47.36753" viewBox="0,0,47.36753,47.36753"><g transform="translate(-296.31624,-201.31624)"><g stroke-miterlimit="10"><path d="M300.55317,224.61869c0,-10.66999 8.64974,-19.31973 19.31973,-19.31973c10.66999,0 19.31973,8.64974 19.31973,19.31973c0,10.66999 -8.64974,19.31973 -19.31973,19.31973c-10.66999,0 -19.31973,-8.64974 -19.31973,-19.31973z" fill="#ffcf00" stroke="none" stroke-width="0"/><path d="M320.1271,205.55317l19.31973,39.14787h-38.63946z" fill="#ffcf00" stroke="none" stroke-width="0"/><path d="M304.62048,223.85607c0,-8.14288 6.77183,-14.744 15.12531,-14.744c8.35348,0 15.12531,6.60112 15.12531,14.744c0,8.14289 -6.77183,14.744 -15.12531,14.744c-8.35348,0 -15.12531,-6.60111 -15.12531,-14.744z" fill="#ffffff" stroke="none" stroke-width="0"/><path d="M319.74579,221.44958l9.78697,-5.21972l-8.80827,7.17711l-0.9787,12.39682l-0.9787,-12.39682l-8.80827,-7.17711z" fill="#ffcf00" stroke="none" stroke-width="0"/><path d="M298.07465,247.43376c-0.28079,0 -0.50841,-0.22762 -0.50841,-0.50841v-43.8507c0,-0.28079 0.22763,-0.50841 0.50841,-0.50841h43.8507c0.28079,0 0.50841,0.22762 0.50841,0.50841v43.8507c0,0.28079 -0.22763,0.50841 -0.50841,0.50841z" fill="#4294ff" stroke="#000000" stroke-width="2.5"/><path d="M303.23989,228.45721c-0.70197,0 -1.27103,-0.56906 -1.27103,-1.27103v-17.79449c0,-0.70197 0.56906,-1.27103 1.27103,-1.27103h5.59255c0.70197,0 1.27103,0.56906 1.27103,1.27103v17.79449c0,0.70197 -0.56906,1.27103 -1.27103,1.27103z" fill="#000000" stroke="#000000" stroke-width="2.5"/><path d="M306.30626,218.28894c-0.3738,0 -0.67683,-0.28453 -0.67683,-0.63552v-8.89724c0,-0.35099 0.30302,-0.63552 0.67683,-0.63552h2.97803c0.3738,0 0.67683,0.28453 0.67683,0.63552v8.89724c0,0.35099 -0.30302,0.63552 -0.67683,0.63552z" fill="#ffffff" stroke="#000000" stroke-width="2.5"/><path d="M331.30434,228.45721c-0.70197,0 -1.27103,-0.56906 -1.27103,-1.27103v-17.79449c0,-0.70197 0.56906,-1.27103 1.27103,-1.27103h5.59255c0.70197,0 1.27103,0.56906 1.27103,1.27103v17.79449c0,0.70197 -0.56906,1.27103 -1.27103,1.27103z" fill="#000000" stroke="#000000" stroke-width="2.5"/><path d="M334.37072,218.28894c-0.3738,0 -0.67683,-0.28453 -0.67683,-0.63552v-8.89724c0,-0.35099 0.30302,-0.63552 0.67683,-0.63552h2.97803c0.3738,0 0.67683,0.28453 0.67683,0.63552v8.89724c0,0.35099 -0.30302,0.63552 -0.67683,0.63552z" fill="#ffffff" stroke="#000000" stroke-width="2.5"/><path d="M340.30327,218.03473c-1.27103,0 -1.27103,-1.27103 -1.27103,-1.27103v-0.6101c0,-2.68803 0.29745,-5.34937 0.30505,-8.03294c0.00111,-0.39269 -0.015,-0.78604 0.00817,-1.17805c0.01066,-0.18045 0.22927,-0.41549 0.093,-0.53425c-0.14314,-0.12474 -0.36462,0.1185 -0.55397,0.13252c-0.90191,0.06675 -1.7461,-0.03295 -2.64432,-0.10173c-2.86475,-0.21937 -5.61087,-0.41901 -8.46749,-0.00903c0,0 -1.25826,0.17975 -1.43801,-1.07851c-0.17975,-1.25826 1.07851,-1.43801 1.07851,-1.43801c3.4954,-0.49718 6.80242,-0.04446 10.29512,0.08985c0.95369,0.03667 2.71699,-0.16247 3.4598,0.54201c0.8428,0.79931 0.7087,2.53749 0.71126,3.57521c0.0066,2.68358 -0.30505,5.34558 -0.30505,8.03294v0.6101c0,0 0,1.27103 -1.27103,1.27103z" fill="#ffffff" stroke="none" stroke-width="0.5"/><path d="M339.33728,245.33656c0,-0.70197 0.56906,-1.27103 1.27103,-1.27103c0.70197,0 1.27103,0.56906 1.27103,1.27103c0,0.70197 -0.56906,1.27103 -1.27103,1.27103c-0.70197,0 -1.27103,-0.56906 -1.27103,-1.27103z" fill="#ffffff" stroke="none" stroke-width="0.5"/><path d="M340.60831,235.11744c1.27103,0 1.27103,1.27103 1.27103,1.27103c0,1.79639 0,3.79616 0,5.59255c0,0 0,1.27103 -1.27103,1.27103c-1.27103,0 -1.27103,-1.27103 -1.27103,-1.27103c0,-1.79639 0,-3.59279 0,-5.38919v-0.20337c0,0 0,-1.27103 1.27103,-1.27103z" fill="#ffffff" stroke="none" stroke-width="0.5"/><path d="M329.71537,245.64483c-0.30827,-1.23309 0.92482,-1.54136 0.92482,-1.54136l0.715,-0.13963c1.90006,0.00574 3.57158,-0.17597 5.48077,0.11646c0,0 1.25626,0.19327 1.06299,1.44952c-0.19327,1.25626 -1.44952,1.06299 -1.44952,1.06299c-1.78223,-0.27548 -3.30921,-0.09156 -5.09424,-0.0869l-0.09846,0.06373c0,0 -1.23309,0.30827 -1.54136,-0.92482z" fill="#ffffff" stroke="none" stroke-width="0.5"/></g></g></svg>