<svg version="1.1" xmlns="http://www.w3.org/2000/svg" xmlns:xlink="http://www.w3.org/1999/xlink" width="125.99425" height="78.30577" viewBox="0,0,125.99425,78.30577"><g transform="translate(-257.00288,-185.84712)"><g stroke="none" stroke-width="0.5" stroke-miterlimit="10"><g><path d="M361.40015,253.65705c-2.49789,-0.10272 -2.39517,-2.60061 -2.39517,-2.60061l0.14907,-3.60343c0.5429,-5.74648 0.93384,-11.53501 1.15084,-17.3226c-2.51728,1.06574 -5.03379,1.81582 -8.04836,1.51658c-1.73185,-0.17191 -5.57761,-1.08997 -6.67564,-2.38909c-1.29577,-1.53307 -1.06969,-4.71983 -1.07801,-6.59874c0.0017,-0.31587 0.03954,-0.77488 0.11658,-1.22818c-2.56698,1.85987 -8.77265,4.69509 -9.72813,5.06499c-3.06554,1.18681 -5.8122,2.79915 -9.14211,3.15103c-4.37966,0.46281 -10.84228,0.10227 -14.62257,-2.40073c-2.22427,-1.47273 -4.05517,-5.18198 -4.75342,-7.65361c-0.60246,0.22464 -1.27622,0.39125 -1.72868,0.48275c-8.50241,2.84623 -19.89074,8.41311 -29.63355,8.40076c0.16555,22.0153 3.02668,21.2156 23.46465,29.72811c18.53328,-0.30364 37.59966,0.8662 56.28089,0.96706c13.61276,-2.73413 15.68213,-18.33862 15.74483,-29.94935c-0.49849,-0.70955 -0.49849,-1.56282 -0.49849,-1.56282c0,-0.55283 0,-1.10565 0,-1.65848c-1.55003,0.59288 -3.09931,1.19248 -4.61978,1.84181c-0.19239,6.66216 -0.61341,13.33364 -1.2405,19.94888l-0.14183,3.4705c0,0 -0.10272,2.49789 -2.60061,2.39517zM360.50287,219.65916c-0.00118,-6.63105 -0.53642,-13.4973 0.27549,-20.10249c-2.48755,-1.35818 -5.08828,-2.53006 -7.70396,-3.57632c-17.22674,-6.89069 -36.49957,-5.98607 -54.58124,-2.36974c-1.34266,0.26246 -3.03255,0.59388 -4.94506,1.00812c0.09047,1.51766 -1.4272,2.2765 -1.4272,2.2765l-1.18956,0.58512c-2.89077,1.00477 -4.09687,3.76003 -5.92847,6.17881c-4.37177,5.77327 -7.3968,12.91605 -8.79245,20.07468c9.05886,-0.15602 20.04137,-6.12985 27.15078,-8.49093c1.23919,-0.2449 6.72474,-1.37117 7.04324,-1.15392c2.73569,1.86599 -0.02375,6.62361 3.47466,8.98306c2.79607,1.88577 8.15471,1.89719 11.37743,1.59927c7.98981,-0.7386 24.18221,-16.48906 24.24634,-2.01217c-0.00612,1.13404 -0.83993,2.56128 -0.07801,3.40126c0.68253,0.75245 4.41653,0.70342 5.33167,0.61091c2.10315,-0.2126 3.87805,-1.14163 5.70184,-2.05716c0.0298,-1.6532 0.0448,-3.30521 0.0445,-4.95501zM363.91387,195.69318c1.05369,0.17561 1.58211,0.72642 1.84177,1.29973c2.84244,1.44914 5.73493,3.11842 8.015,5.39849c1.76853,1.76853 3.23667,4.25676 4.73224,6.26776c1.91604,2.57639 2.666,4.69979 3.39636,7.78763c0.30818,1.30293 1.41316,2.61039 1.01079,3.88737c-0.43842,1.39139 -2.12156,2.00293 -3.18233,3.0044l-2.79634,1.14178c0,0 -0.72974,0.2919 -1.53455,0.1392c-0.23621,0.03961 -0.39392,0.03961 -0.39392,0.03961l-0.19189,-0.03202l0.19189,0.53202c0,0.47834 0,0.95669 0,1.43503c0.5,0.70998 0.5,1.56497 0.5,1.56497v0.5c0,14.6624 -3.45517,32.13794 -20.25366,35.48783c-19.27294,0.08538 -38.56709,-0.77964 -57.71911,-1.03294c-22.96745,-8.87422 -27.33707,-10.42435 -27.52101,-35.2169c-4.68299,-1.16945 -8.70541,-4.24077 -11.43246,-10.37667c-1.57377,-0.52504 -1.57377,-2.36132 -1.57377,-2.36132c0.63454,-18.74835 26.66022,-23.60538 40.50971,-26.45145c19.03273,-3.80654 39.28532,-4.62312 57.41876,2.63026c3.02622,1.21049 5.47904,2.83366 8.21704,4.31888c0.23009,-0.01998 0.48444,-0.01051 0.76548,0.03633zM365.50287,219.65916c-0.00016,0.91133 -0.0048,1.82333 -0.01385,2.73585c2.18906,-0.87239 4.4089,-1.68644 6.58537,-2.55704l2.92847,-0.17881c0,0 0.1686,0 0.41823,0.04379l1.85695,-0.7232c0.27256,0.00147 0.85936,0.27375 0.81767,0.0044c-0.07592,-0.49042 -0.80008,-0.65382 -0.98921,-1.11263c-0.32388,-0.7857 -0.26638,-1.68291 -0.5,-2.5c-0.64669,-2.26184 -2.22268,-3.87108 -3.60364,-5.71237c-2.10969,-2.81292 -4.67467,-5.16722 -7.51014,-7.17707c-0.44897,5.67525 0.01112,11.54359 0.01014,17.17707zM278.32346,202.43435c0.46534,-0.83496 0.5567,-1.8597 1.0923,-2.65141c0.39756,-0.58766 0.86274,-1.1531 1.36496,-1.70591c-9.20774,3.14792 -18.10105,8.04408 -18.75719,15.56907c0.55476,0.47017 0.80053,1.08459 0.80053,1.08459c1.77622,4.48215 4.49103,6.98497 7.7443,8.15943c0.52822,-7.46948 4.15936,-14.00387 7.7551,-20.45577z" fill="#fdbc59"/><path d="M375.47016,219.71263c-0.24963,-0.04379 -0.41824,-0.04375 -0.41824,-0.04375l-2.92862,0.17949c-3.35267,1.34106 -6.81006,2.55453 -10.09753,4.04714c-2.3947,1.08726 -4.54448,2.52779 -7.22481,2.79874c-0.91514,0.09251 -4.73667,0.09327 -5.4192,-0.65919c-0.76191,-0.83998 0.06976,-2.26318 0.07588,-3.39722c-0.06413,-14.47689 -16.19577,1.34241 -24.18558,2.08101c-3.22271,0.29791 -8.61675,0.28487 -11.41281,-1.6009c-3.49841,-2.35945 -0.76293,-7.13887 -3.49862,-9.00486c-0.3185,-0.21725 -5.80687,0.90297 -7.04606,1.14787c-11.5911,3.84946 -33.48058,17.28934 -40.54024,-0.5251c0,0 -0.24587,-0.61541 -0.80062,-1.08558c1.14025,-13.07714 27.16606,-18.24804 36.47855,-20.06843c18.08167,-3.61633 37.44202,-4.51026 54.66876,2.38043c7.55748,3.02299 14.99361,7.11339 19.93185,13.69771c1.38096,1.84128 2.95661,3.45548 3.60331,5.71732c0.23362,0.81709 0.17583,1.71638 0.49972,2.50208c0.18913,0.45881 0.91316,0.623 0.98908,1.11342c0.0417,0.26935 -0.54513,-0.00282 -0.81769,-0.00429z" fill="#6b72ff"/><path d="M370.55027,229.21158c-0.0627,11.61073 -2.13845,27.25192 -15.75122,29.98605c-18.68123,-0.10085 -37.82965,-1.26636 -56.36293,-0.96272c-20.43797,-8.51251 -23.30832,-7.75458 -23.47387,-29.76988c9.74282,0.01235 21.14567,-5.57986 29.64808,-8.42608c0.45246,-0.09151 1.19232,-0.18313 1.79478,-0.40777c0.69824,2.47163 2.46267,6.10626 4.68694,7.57899c3.78029,2.503 10.2922,2.85184 14.67186,2.38904c3.3299,-0.35188 6.09615,-1.95282 9.16169,-3.13963c0.95548,-0.3699 7.16551,-3.20045 9.73249,-5.06032c-0.07704,0.45331 -0.11388,0.91357 -0.11559,1.22943c0.00833,1.87891 -0.21169,5.07587 1.08408,6.60895c1.09804,1.29913 4.94645,2.22478 6.6783,2.39669c4.47741,0.44443 7.75939,-1.40037 11.67379,-3.18174c1.94966,-0.88726 4.05857,-1.69527 6.0723,-2.46552c0,0.55283 0.00042,1.10724 0.00042,1.66006c0,0 0.00037,0.85491 0.49886,1.56446z" fill="#aa7e3b"/><path d="M310.50287,189.65916c0,2.5 -2.5,2.5 -2.5,2.5l-0.07153,-0.17881c-1.73741,0.69496 -3.47622,1.38644 -5.21611,2.07517c-16.17598,3.27139 -24.71182,17.2971 -27.24638,32.51464c0,0 -0.411,2.46598 -2.87698,2.05499c-2.46598,-0.411 -2.05499,-2.87698 -2.05499,-2.87698c2.8176,-16.8946 12.7608,-32.9294 30.75362,-36.48536c1.59321,-0.64515 3.18796,-1.28646 4.78389,-1.92483l1.92847,-0.17881c0,0 2.5,0 2.5,2.5z" fill="#fdbc59"/><path d="M341.95432,189.16887c0.49029,2.45145 -1.96116,2.94174 -1.96116,2.94174l-2.5,0.5c-5.63484,1.10056 -13.74684,3.75025 -17.60165,8.18655c-2.35709,2.71265 -3.35945,5.80254 -5.31401,8.75697c-2.19302,3.31488 -4.6666,6.47135 -4.57462,10.60503c0,0 0,2.5 -2.5,2.5c-2.5,0 -2.5,-2.5 -2.5,-2.5c0.07993,-5.26739 2.56334,-9.13883 5.42538,-13.39497c2.07715,-3.08892 3.16366,-6.37676 5.68599,-9.24303c4.66399,-5.29999 13.59508,-8.42611 20.39835,-9.81345l2.5,-0.5c0,0 2.45145,-0.49029 2.94174,1.96116z" fill="#fdbc59"/><path d="M364.583,196.27241c1.38675,2.08013 -0.69338,3.46688 -0.69338,3.46688l-2.39646,1.37132c-7.01392,1.1779 -13.32099,10.85071 -14.53884,17.53884c0,0 -0.49029,2.45145 -2.94174,1.96116c-2.45145,-0.49029 -1.96116,-2.94174 -1.96116,-2.94174c1.03692,-4.87165 3.9665,-9.52441 6.95145,-13.50971c0.44053,-0.58817 3.13397,-4.21822 3.47928,-4.4843c2.1147,-1.62944 5.46798,-2.90125 8.03043,-3.46715l0.60354,-0.62868c0,0 2.08013,-1.38675 3.46688,0.69338z" fill="#fdbc59"/><path d="M374.00287,222.15916c0,2.5 -2.5,2.5 -2.5,2.5l-2.49029,-0.04855c-2.5,-0.5 -5,-1 -7.5,-1.5c-18.29735,-3.73125 -33.58405,-11.95145 -53.00971,-11.95145c-16.54915,0 -28.76056,2.02174 -42,12c0,0 -2,1.5 -3.5,-0.5c-1.5,-2 0.5,-3.5 0.5,-3.5c14.19403,-10.58559 27.35982,-13 45,-13c21.58914,0 34.58454,8.25836 53.99029,12.04855c2.5,0.5 5,1 7.5,1.5l1.50971,-0.04855c0,0 2.5,0 2.5,2.5z" fill="#fdbc59"/><path d="M380.77064,214.92693c-1.76776,1.76776 -3.53553,0 -3.53553,0l0.33929,0.05343c-4.15088,-1.66036 -7.62883,-4.28862 -11.59195,-6.03893c-0.7774,-0.34333 -1.72341,-0.15485 -2.5,-0.5c-1.46077,-0.64923 -2.81038,-1.65331 -4.38107,-1.95046c-15.17642,-9.10585 -36.07652,-8.21951 -53.18751,-5.36582c-15.78649,2.58855 -30.28292,4.65921 -43.411,14.53402c0,0 -2,1.5 -3.5,-0.5c-1.5,-2 0.5,-3.5 0.5,-3.5c13.89096,-10.39084 28.94928,-12.64129 45.589,-15.46598c17.86753,-2.97593 39.95266,-3.88172 55.81249,5.63418c1.64851,0.34591 3.0797,1.36544 4.61893,2.04954c0.77659,0.34515 1.72414,0.1532 2.5,0.5c3.93129,1.75728 7.31427,4.32357 11.40805,5.96107l1.33929,1.05343c0,0 1.76776,1.76776 0,3.53553z" fill="#fdbc59"/><path d="M342.18168,257.08764c-0.92847,-2.32119 1.39272,-3.24966 1.39272,-3.24966l2.56858,-1.02627c6.6296,-2.20172 14.95049,-4.63611 16.40845,-12.64282c0,0 0.49029,-2.45145 2.94174,-1.96116c2.45145,0.49029 1.96116,2.94174 1.96116,2.94174c-1.27965,6.01203 -5.8627,10.74425 -11.22663,13.68912c-2.56507,1.40825 -5.61518,1.74757 -8.36492,2.66806l-2.43142,0.97373c0,0 -2.32119,0.92847 -3.24966,-1.39272z" fill="#ffffff"/><path d="M367.50287,212.15916c-1.48333,0 -2.08656,-0.88011 -2.33186,-1.59593c-6.27839,-4.30173 -14.68002,-5.94094 -18.81187,-12.61783c0,0 -1.28624,-2.14373 0.85749,-3.42997c2.14373,-1.28624 3.42997,0.85749 3.42997,0.85749c2.86514,4.98934 9.31016,5.94075 14.08109,8.60683c0.1827,0.1021 3.96368,2.94578 4.27518,3.17941l1,2.5c0,0 0,2.5 -2.5,2.5z" fill="#ffffff"/></g></g></g></svg>