<svg version="1.1" xmlns="http://www.w3.org/2000/svg" xmlns:xlink="http://www.w3.org/1999/xlink" width="885.99999" height="576.37186" viewBox="0,0,885.99999,576.37186"><g transform="translate(116,89.75001)"><g stroke="none" stroke-miterlimit="10"><path d="M-31.5,417.5v-428h699v428z" fill="#7ddbff" stroke-width="0.5"/><path d="M607.61415,457.26716c-0.00046,-0.00085 -0.00092,-0.0017 -0.00138,-0.00256c-0.12593,-0.23326 -0.22544,-0.47649 -0.30001,-0.72857c-1.0984,0.40458 -2.19656,0.81121 -3.35054,0.82877c-0.05426,0.00083 -0.10849,0.00129 -0.16271,0.00141l0.00379,0.02656l-4.90717,0.70102c-0.12902,0.02054 -0.26133,0.03121 -0.39613,0.03121c-0.68919,0 -1.31325,-0.27888 -1.76548,-0.72995c-13.11181,3.38231 -26.19222,6.8632 -39.04057,11.11636c-30.72825,9.83553 -67.29251,5.68831 -99.25468,5.59953c-31.97722,-0.08995 -63.93094,-4.08354 -95.93927,-3.98595c-18.69297,0 -36.87683,-2.17576 -54.78721,-6.3354c-14.64182,2.70868 -29.3002,5.23576 -44.06874,6.88681c-34.08305,3.81023 -67.85683,9.32363 -102.21053,9.32359c-33.46618,-0.00061 -66.67497,-2.13843 -100.00516,-5.17376c-33.75805,-7.00189 -67.52066,-11.43014 -100.91017,-20.334c-16.09298,-4.29147 -75.60571,-20.01998 -76.51819,-38.99221c0,0 0,-1.45062 1.105,-2.14187c1.11399,-27.31924 10.99053,-52.82678 24.75491,-76.4367c17.36697,-29.77195 55.32742,-39.22457 87.52443,-40.91875c34.85521,-1.39455 68.50504,-0.2436 103.17017,3.6507c32.56302,3.66097 66.28149,10.13801 97.71328,19.43577c31.58881,9.34823 63.40911,20.0481 95.76216,26.42606c33.5886,6.63181 67.19947,9.38248 101.45292,9.45822c34.31729,0.07589 68.52066,0.73303 102.67989,-3.06244c33.90101,-3.76678 67.9986,-7.40368 101.11555,-15.68242c20.82074,-5.53922 37.62179,-15.93845 57.22594,-24.02169c11.64526,-4.8016 24.4076,-7.37706 36.58203,-10.4269c17.08601,-4.26744 34.89601,-4.77997 52.41373,-4.77997c6.16937,0 13.05928,-0.54722 18.50604,2.37697c0.03899,-0.50305 0.32952,-2.37697 2.49396,-2.37697l-0.00002,-0.00003c2.5,0 2.5,2.5 2.5,2.5v0.95587c0.53143,0.34804 1,0.96179 1,2.04413c0,1.08375 -0.46981,1.6977 -1.0021,2.0455c-0.00287,1.41999 -0.00859,2.83999 -0.01663,4.25996c-4.54114,18.16455 -21.54129,29.26602 -33.59263,43.33255c-5.22916,6.10357 -8.92716,13.25798 -13.76304,19.67798c-5.75513,11.52661 -13.8174,20.53587 -21.0163,31.02596c-2.38299,3.47244 -3.13794,8.10501 -5.51686,11.54348c-6.1713,8.91993 -17.72306,15.41729 -29.19269,18.53636c0.06526,0.22306 0.10026,0.45904 0.10026,0.7032c0,0.6463 -0.24525,1.23532 -0.64775,1.67907c0.67491,0.44767 1.11989,1.2143 1.11989,2.08486c0,0.99801 -0.58479,1.85943 -1.43041,2.26029l-4.42369,2.21185l-0.03723,-0.07446l-0.20952,0.18165c-2.43223,0.62713 -4.86145,1.26019 -7.28828,1.89894c-4.48958,2.25405 -10.0604,4.50376 -15.34822,6.45053c-7.69676,4.11835 -15.38413,8.25437 -23.01954,12.49204c-0.54252,0.3011 -1.08374,0.6048 -1.62407,0.91029c-4.13666,2.65266 -8.29536,5.27311 -12.48843,7.85371c-8.05979,4.96034 -16.27469,9.90679 -25.17374,13.17668l-4.64087,1.69912c-0.28306,0.11121 -0.59132,0.17229 -0.91384,0.17229c-1.38071,0 -2.5,-1.11929 -2.5,-2.5c0,-0.70415 0.29111,-1.3403 0.75955,-1.79467l3.58295,-3.48313l0.02632,0.02707c0.0631,-0.07287 0.12719,-0.14499 0.19235,-0.21632c1.18903,-1.30156 3.01735,-1.82401 4.52812,-2.73253c3.57277,-2.14853 7.1822,-4.24236 10.73142,-6.42963c6.79552,-4.18786 13.55917,-8.2997 20.41915,-12.22547z" fill="#7eff8d" stroke-width="0.5"/><path d="M220.5,70c0,24.57667 -41.86138,44.5 -93.5,44.5c-51.63862,0 -93.5,-19.92333 -93.5,-44.5c0,-24.57667 41.86138,-44.5 93.5,-44.5c51.63862,0 93.5,19.92333 93.5,44.5z" fill="#ffffff" stroke-width="0"/><path d="M255.5,96.37701c0,20.50247 -34.92179,37.123 -78,37.123c-43.07821,0 -78,-16.62053 -78,-37.123c0,-20.50246 34.92179,-37.12299 78,-37.12299c43.07821,0 78,16.62053 78,37.12299z" fill="#ffffff" stroke-width="0"/><path d="M410.5,42.2861c0,16.03398 -18.58019,29.03208 -41.5,29.03208c-22.91981,0 -41.5,-12.9981 -41.5,-29.03208c0,-16.03398 18.58019,-29.03208 41.5,-29.03208c22.91981,0 41.5,12.99811 41.5,29.03209z" fill="#ffffff" stroke-width="0"/><path d="M452.65344,63.2861c0,14.92941 -22.42011,27.03208 -50.07671,27.03208c-27.65661,0 -50.07672,-12.10267 -50.07672,-27.03208c0,-14.92941 22.42012,-27.03208 50.07672,-27.03208c27.65661,0 50.07671,12.10267 50.07671,27.03209z" fill="#ffffff" stroke-width="0"/><path d="M595.5,108.2861c0,16.03398 -24.62434,29.03209 -55,29.03209c-30.37566,0 -55,-12.99811 -55,-29.03209c0,-16.03398 24.62434,-29.03209 55,-29.03209c30.37566,0 55,12.99811 55,29.03209z" fill="#ffffff" stroke-width="0"/><path d="M589.5,35.33977c0,12.74991 -14.7746,23.08576 -33,23.08576c-18.2254,0 -33,-10.33584 -33,-23.08575c0,-12.74991 14.7746,-23.08575 33,-23.08575c18.2254,0 33,10.33585 33,23.08576z" fill="#ffffff" stroke-width="0"/><path d="M355.5,123.48783c0,14.48853 -16.78933,26.23381 -37.5,26.23381c-20.71067,0 -37.5,-11.74527 -37.5,-26.23381c0,-14.48853 16.78933,-26.23382 37.5,-26.23382c20.71067,0 37.5,11.74528 37.5,26.23382z" fill="#ffffff" stroke-width="0"/><path d="M46.5,17.33977c0,12.74991 -14.7746,23.08576 -33,23.08576c-18.22539,0 -33,-10.33584 -33,-23.08575c0,-12.74991 14.77461,-23.08575 33,-23.08575c18.2254,0 33,10.33584 33,23.08576z" fill="#ffffff" stroke-width="0"/><path d="M531.5,12.24999c0,-56.33304 45.66696,-102 102,-102c56.33304,0 102,45.66696 102,102c0,56.33305 -45.66696,102 -102,102c-56.33304,0 -102,-45.66695 -102,-102z" fill="#ffe800" stroke-width="0"/><path d="M529.84418,126.8384c-16.08679,16.71131 -32.19195,27.30877 -35.97189,23.67009c-3.77994,-3.63868 6.19673,-20.1356 22.28352,-36.84691c16.08679,-16.71131 32.19195,-27.30877 35.97189,-23.67009c3.77994,3.63868 -6.19673,20.1356 -22.28352,36.84691z" fill="#ffe800" stroke-width="0"/><path d="M562.57513,148.18033c-12.85221,19.30993 -26.81172,32.60709 -31.17945,29.70004c-4.36772,-2.90705 2.51032,-20.91746 15.36253,-40.22739c12.85221,-19.30993 26.81172,-32.60709 31.17945,-29.70004c4.36772,2.90705 -2.51032,20.91746 -15.36253,40.22739z" fill="#ffe800" stroke-width="0"/><path d="M602.62763,159.73787c-7.70238,21.87981 -17.95835,38.20456 -22.90735,36.46235c-4.94901,-1.74221 -2.71695,-20.89163 4.98542,-42.77143c7.70238,-21.87981 17.95835,-38.20456 22.90736,-36.46235c4.94901,1.74221 2.71695,20.89163 -4.98543,42.77144z" fill="#ffe800" stroke-width="0"/><path d="M643.16589,163.37114c-0.29582,23.19407 -4.78857,41.94234 -10.03485,41.87543c-5.24628,-0.06691 -9.25942,-18.92367 -8.9636,-42.11774c0.29582,-23.19407 4.78857,-41.94234 10.03486,-41.87543c5.24628,0.06691 9.25942,18.92367 8.9636,42.11774z" fill="#ffe800" stroke-width="0"/><path d="M507.28068,98.1471c-19.28222,12.89374 -37.27779,19.81052 -40.19423,15.44907c-2.91644,-4.36146 10.35065,-18.34955 29.63287,-31.24329c19.28222,-12.89374 37.27779,-19.81052 40.19423,-15.44907c2.91644,4.36146 -10.35065,18.34955 -29.63287,31.24329z" fill="#ffe800" stroke-width="0"/><path d="M494.22527,70.75864c-20.7754,10.31675 -39.50891,14.87067 -41.84246,10.17147c-2.33355,-4.6992 12.61652,-16.87203 33.39192,-27.18878c20.7754,-10.31675 39.50891,-14.87067 41.84246,-10.17147c2.33355,4.6992 -12.61652,16.87203 -33.39192,27.18878z" fill="#ffe800" stroke-width="0"/><path d="M480.67781,45.36478c-22.25539,6.53837 -41.49584,7.75794 -42.97476,2.72398c-1.47892,-5.03396 15.36374,-14.41518 37.61913,-20.95356c22.25539,-6.53837 41.49584,-7.75794 42.97476,-2.72398c1.47892,5.03396 -15.36374,14.41518 -37.61913,20.95356z" fill="#ffe800" stroke-width="0"/><path d="M474.6465,16.07817c-23.18335,0.76465 -42.11739,-2.86646 -42.29034,-8.11032c-0.17295,-5.24386 18.48066,-10.11471 41.66401,-10.87936c23.18335,-0.76465 42.11739,2.86646 42.29034,8.11032c0.17295,5.24386 -18.48066,10.11471 -41.66401,10.87936z" fill="#ffe800" stroke-width="0"/><path d="M466.0618,175c0,15.18783 -25.86939,27.5 -57.7809,27.5c-31.91151,0 -57.7809,-12.31217 -57.7809,-27.5c0,-15.18783 25.86939,-27.5 57.7809,-27.5c31.91151,0 57.7809,12.31217 57.7809,27.5z" fill="#ffffff" stroke-width="0"/><path d="M296.0618,176c0,15.18783 -25.8694,27.5 -57.7809,27.5c-31.9115,0 -57.7809,-12.31217 -57.7809,-27.5c0,-15.18783 25.86939,-27.5 57.7809,-27.5c31.9115,0 57.7809,12.31217 57.7809,27.5z" fill="#ffffff" stroke-width="0"/><path d="M241.0618,163c0,15.18783 -14.90037,27.5 -33.2809,27.5c-18.38053,0 -33.2809,-12.31217 -33.2809,-27.5c0,-15.18783 14.90037,-27.5 33.2809,-27.5c18.38053,0 33.2809,12.31217 33.2809,27.5z" fill="#ffffff" stroke-width="0"/><path d="M118.0618,171c0,15.18783 -17.81052,27.5 -39.7809,27.5c-21.97038,0 -39.7809,-12.31217 -39.7809,-27.5c0,-15.18783 17.81052,-27.5 39.7809,-27.5c21.97038,0 39.7809,12.31217 39.7809,27.5z" fill="#ffffff" stroke-width="0"/></g></g></svg>