<svg version="1.1" xmlns="http://www.w3.org/2000/svg" xmlns:xlink="http://www.w3.org/1999/xlink" width="76.5" height="77.5" viewBox="0,0,76.5,77.5"><g transform="translate(-281.75,-186.25)"><g stroke="none" stroke-width="0" stroke-miterlimit="10"><path d="M281.75,224.25c0,-20.98682 17.01318,-38 38,-38c20.98682,0 38,17.01318 38,38c0,20.98682 -17.01318,38 -38,38c-20.98682,0 -38,-17.01318 -38,-38z" fill="#ffcf00"/><path d="M320.25,186.75l38,77h-76z" fill="#ffcf00"/><path d="M289.75,222.75c0,-16.01625 13.31953,-29 29.75,-29c16.43047,0 29.75,12.98375 29.75,29c0,16.01626 -13.31953,29 -29.75,29c-16.43047,0 -29.75,-12.98374 -29.75,-29z" fill="#ffffff"/><path d="M319.5,218.01667l19.25,-10.26667l-17.325,14.11667l-1.925,24.38333l-1.925,-24.38333l-17.325,-14.11667z" fill="#ffcf00"/></g></g></svg>